<svg viewBox="0 0 1000 500" fill="none" xmlns="http://www.w3.org/2000/svg">
  <defs>
    <radialGradient id="bgGlowLeft" cx="30%" cy="50%" r="50%">
      <stop offset="0%" stop-color="#00B4D8" stop-opacity="0.5" />
      <stop offset="60%" stop-color="#0077B6" stop-opacity="0.2" />
      <stop offset="100%" stop-color="#03045E" stop-opacity="0" />
    </radialGradient>
    <radialGradient id="bgGlowRight" cx="70%" cy="50%" r="50%">
      <stop offset="0%" stop-color="#FF9E00" stop-opacity="0.7" />
      <stop offset="40%" stop-color="#FF5400" stop-opacity="0.3" />
      <stop offset="100%" stop-color="#9D0208" stop-opacity="0" />
    </radialGradient>
    <linearGradient id="alphaFront" x1="0%" y1="0%" x2="0%" y2="100%">
      <stop offset="0%" stop-color="#FFFFFF" />
      <stop offset="35%" stop-color="#E2F1FF" />
      <stop offset="60%" stop-color="#90CAFF" />
      <stop offset="100%" stop-color="#4A90E2" />
    </linearGradient>
    <linearGradient id="alpha3D" x1="0%" y1="0%" x2="0%" y2="100%">
      <stop offset="0%" stop-color="#1E3A8A" />
      <stop offset="100%" stop-color="#0B1947" />
    </linearGradient>
    <linearGradient id="blastFront" x1="0%" y1="0%" x2="0%" y2="100%">
      <stop offset="0%" stop-color="#FFF9A6" />
      <stop offset="30%" stop-color="#FFDD00" />
      <stop offset="70%" stop-color="#FFAA00" />
      <stop offset="100%" stop-color="#FF7700" />
    </linearGradient>
    <linearGradient id="blast3D" x1="0%" y1="0%" x2="0%" y2="100%">
      <stop offset="0%" stop-color="#C82000" />
      <stop offset="100%" stop-color="#660000" />
    </linearGradient>
    <linearGradient id="tileBlue" x1="0%" y1="0%" x2="100%" y2="100%">
      <stop offset="0%" stop-color="#38BDF8" />
      <stop offset="100%" stop-color="#0284C7" />
    </linearGradient>
    <linearGradient id="tilePurple" x1="0%" y1="0%" x2="100%" y2="100%">
      <stop offset="0%" stop-color="#C084FC" />
      <stop offset="100%" stop-color="#7E22CE" />
    </linearGradient>
    <linearGradient id="tileOrange" x1="0%" y1="0%" x2="100%" y2="100%">
      <stop offset="0%" stop-color="#FDBA74" />
      <stop offset="100%" stop-color="#EA580C" />
    </linearGradient>
    <linearGradient id="tilePink" x1="0%" y1="0%" x2="100%" y2="100%">
      <stop offset="0%" stop-color="#F472B6" />
      <stop offset="100%" stop-color="#BE185D" />
    </linearGradient>
    <linearGradient id="tileGreen" x1="0%" y1="0%" x2="100%" y2="100%">
      <stop offset="0%" stop-color="#4ADE80" />
      <stop offset="100%" stop-color="#15803D" />
    </linearGradient>
    <linearGradient id="tileViolet" x1="0%" y1="0%" x2="100%" y2="100%">
      <stop offset="0%" stop-color="#A78BFA" />
      <stop offset="100%" stop-color="#5B21B6" />
    </linearGradient>
    <filter id="glowOrange" x="-20%" y="-20%" width="140%" height="140%">
      <feGaussianBlur stdDeviation="10" result="blur" />
      <feComposite in="SourceGraphic" in2="blur" operator="over" />
    </filter>
  </defs>

  <rect x="0" y="0" width="1000" height="500" fill="#030A1D" rx="28" />
  <circle cx="320" cy="250" r="280" fill="url(#bgGlowLeft)" />
  <circle cx="700" cy="250" r="280" fill="url(#bgGlowRight)" />

  <g opacity="0.4">
    <path d="M 280 250 L 50 120 L 70 90 Z" fill="#00D4FF" />
    <path d="M 280 250 L 80 200 L 60 170 Z" fill="#38BDF8" />
    <path d="M 280 250 L 50 320 L 70 350 Z" fill="#0284C7" />
    <path d="M 280 250 L 140 420 L 170 440 Z" fill="#00E5FF" />
    <path d="M 280 250 L 220 70 L 250 50 Z" fill="#38BDF8" />
  </g>

  <g filter="url(#glowOrange)">
    <polygon points="700,60 740,190 890,120 780,230 960,250 790,290 920,390 750,330 720,460 670,340 560,430 630,300 480,270 630,220 540,110 660,180" fill="#D00000" opacity="0.8" />
    <polygon points="700,90 735,200 860,145 770,235 920,255 775,285 880,370 740,320 710,430 675,330 585,400 640,295 510,270 640,225 565,135 670,190" fill="#FF5400" />
    <polygon points="700,120 730,210 820,170 760,240 870,255 765,280 840,345 735,310 705,395 680,320 610,370 650,290 550,270 650,235 590,165 675,200" fill="#FFDD00" />
    <ellipse cx="710" cy="260" rx="90" ry="60" fill="#FFFBEA" opacity="0.9" filter="url(#glowOrange)" />
  </g>

  <!-- Tiles -->
  <g transform="translate(110, 70) rotate(-12)">
    <rect x="0" y="8" width="105" height="105" rx="26" fill="#0B1E4A" />
    <rect x="0" y="4" width="105" height="105" rx="26" fill="#0284C7" />
    <rect x="0" y="0" width="105" height="105" rx="26" fill="url(#tileBlue)" stroke="#BAE6FD" stroke-width="4" />
    <path d="M 12 12 Q 52 8 93 12 Q 88 35 17 35 Z" fill="#FFFFFF" fill-opacity="0.45" />
    <text x="52" y="76" font-size="68" font-family="'Arial Black', 'Impact', sans-serif" font-weight="900" fill="#FFFFFF" text-anchor="middle">A</text>
  </g>

  <g transform="translate(395, 45) rotate(6)">
    <rect x="0" y="8" width="95" height="95" rx="24" fill="#3B0764" />
    <rect x="0" y="4" width="95" height="95" rx="24" fill="#7E22CE" />
    <rect x="0" y="0" width="95" height="95" rx="24" fill="url(#tilePurple)" stroke="#E9D5FF" stroke-width="4" />
    <path d="M 10 10 Q 48 8 85 10 Q 80 30 15 30 Z" fill="#FFFFFF" fill-opacity="0.4" />
    <text x="48" y="69" font-size="62" font-family="'Arial Black', 'Impact', sans-serif" font-weight="900" fill="#FFFFFF" text-anchor="middle">L</text>
  </g>

  <g transform="translate(815, 60) rotate(14)">
    <rect x="0" y="8" width="105" height="105" rx="26" fill="#7C2D12" />
    <rect x="0" y="4" width="105" height="105" rx="26" fill="#C2410C" />
    <rect x="0" y="0" width="105" height="105" rx="26" fill="url(#tileOrange)" stroke="#FED7AA" stroke-width="4" />
    <path d="M 12 12 Q 52 8 93 12 Q 88 35 17 35 Z" fill="#FFFFFF" fill-opacity="0.45" />
    <text x="52" y="76" font-size="68" font-family="'Arial Black', 'Impact', sans-serif" font-weight="900" fill="#FFFFFF" text-anchor="middle">P</text>
  </g>

  <g transform="translate(160, 345) rotate(-8)">
    <rect x="0" y="8" width="95" height="95" rx="24" fill="#500724" />
    <rect x="0" y="4" width="95" height="95" rx="24" fill="#9D174D" />
    <rect x="0" y="0" width="95" height="95" rx="24" fill="url(#tilePink)" stroke="#FBCFE8" stroke-width="4" />
    <path d="M 10 10 Q 48 8 85 10 Q 80 30 15 30 Z" fill="#FFFFFF" fill-opacity="0.4" />
    <text x="48" y="69" font-size="62" font-family="'Arial Black', 'Impact', sans-serif" font-weight="900" fill="#FFFFFF" text-anchor="middle">H</text>
  </g>

  <g transform="translate(420, 360) rotate(8)">
    <rect x="0" y="8" width="105" height="105" rx="26" fill="#052E16" />
    <rect x="0" y="4" width="105" height="105" rx="26" fill="#15803D" />
    <rect x="0" y="0" width="105" height="105" rx="26" fill="url(#tileGreen)" stroke="#BBF7D0" stroke-width="4" />
    <path d="M 12 12 Q 52 8 93 12 Q 88 35 17 35 Z" fill="#FFFFFF" fill-opacity="0.45" />
    <text x="52" y="76" font-size="68" font-family="'Arial Black', 'Impact', sans-serif" font-weight="900" fill="#FFFFFF" text-anchor="middle">B</text>
  </g>

  <g transform="translate(755, 345) rotate(12)">
    <rect x="0" y="8" width="100" height="100" rx="25" fill="#2E1065" />
    <rect x="0" y="4" width="100" height="100" rx="25" fill="#6B21A8" />
    <rect x="0" y="0" width="100" height="100" rx="25" fill="url(#tileViolet)" stroke="#DDD6FE" stroke-width="4" />
    <path d="M 10 10 Q 50 8 90 10 Q 85 32 15 32 Z" fill="#FFFFFF" fill-opacity="0.4" />
    <text x="50" y="72" font-size="64" font-family="'Arial Black', 'Impact', sans-serif" font-weight="900" fill="#FFFFFF" text-anchor="middle">Z</text>
  </g>

  <!-- Crystals -->
  <polygon points="90,240 75,255 90,270 105,255" fill="#00F0FF" opacity="0.9" />
  <polygon points="310,120 300,130 310,140 320,130" fill="#70D6FF" opacity="0.85" />
  <polygon points="325,370 310,390 325,410 340,390" fill="#00D4FF" opacity="0.9" />
  <polygon points="650,85 640,95 650,105 660,95" fill="#FFDD00" opacity="0.95" />
  <polygon points="805,175 795,185 805,195 815,185" fill="#FFAA00" opacity="0.85" />
  <polygon points="895,385 875,400 895,415 915,400" fill="#FFD000" opacity="0.9" />

  <!-- Single Word AlphaBlast Title -->
  <g id="main-title-group" transform="skewX(-6)">
    <text x="490" y="298" font-size="158" font-family="'Arial Black', 'Impact', sans-serif" font-weight="900" letter-spacing="-2" text-anchor="middle" fill="#030816" stroke="#030816" stroke-width="38" stroke-linejoin="round">AlphaBlast</text>
    <text x="490" y="288" font-size="158" font-family="'Arial Black', 'Impact', sans-serif" font-weight="900" letter-spacing="-2" text-anchor="middle" fill="#0B1A48" stroke="#0284C7" stroke-width="24" stroke-linejoin="round">
      <tspan fill="url(#alpha3D)" stroke="#0284C7">Alpha</tspan>
      <tspan fill="url(#blast3D)" stroke="#B91C1C">Blast</tspan>
    </text>
    <text x="490" y="278" font-size="158" font-family="'Arial Black', 'Impact', sans-serif" font-weight="900" letter-spacing="-2" text-anchor="middle" stroke-linejoin="round">
      <tspan fill="#0C256B" stroke="#00D4FF" stroke-width="12">Alpha</tspan>
      <tspan fill="#991B1B" stroke="#FFDD00" stroke-width="12">Blast</tspan>
    </text>
    <text x="490" y="274" font-size="158" font-family="'Arial Black', 'Impact', sans-serif" font-weight="900" letter-spacing="-2" text-anchor="middle" stroke-linejoin="round">
      <tspan fill="url(#alphaFront)" stroke="#FFFFFF" stroke-width="3">Alpha</tspan>
      <tspan fill="url(#blastFront)" stroke="#FFF9A6" stroke-width="3">Blast</tspan>
    </text>
    <path d="M 125 210 Q 300 200 480 208 Q 470 220 135 224 Z" fill="#FFFFFF" fill-opacity="0.45" />
    <path d="M 515 210 Q 690 198 860 208 Q 850 220 525 224 Z" fill="#FFFFFF" fill-opacity="0.45" />
  </g>

  <!-- Sparkles -->
  <polygon points="120,185 124,195 134,199 124,203 120,213 116,203 106,199 116,195" fill="#FFFFFF" />
  <polygon points="265,160 268,168 276,171 268,174 265,182 262,174 254,171 262,168" fill="#FFFFFF" />
  <polygon points="530,170 535,182 547,187 535,192 530,204 525,192 513,187 525,182" fill="#FFFBEA" />
  <polygon points="860,205 864,213 872,216 864,219 860,227 856,219 848,216 856,213" fill="#FFDD00" />
</svg>
